<svg width="335" height="425" viewBox="0 0 335 425" fill="none" xmlns="http://www.w3.org/2000/svg">
<path opacity="0.8" d="M283.938 72.9421L303.615 49.709L323.29 26.4757L334.398 13.3602C335.012 12.6346 334.064 11.5024 333.45 12.2281L313.774 35.4613L294.098 58.6945L282.99 71.81C282.376 72.5356 283.324 73.6678 283.938 72.9421V72.9421Z" fill="url(#paint0_linear)"/>
<path opacity="0.8" d="M143.147 161.948L162.823 138.714L182.499 115.481L193.607 102.366C194.221 101.64 193.273 100.508 192.659 101.233L172.983 124.467L153.307 147.7L142.199 160.815C141.585 161.541 142.533 162.673 143.147 161.947V161.948Z" fill="url(#paint1_linear)"/>
<path d="M259.24 289.279C260.959 289.279 262.353 287.873 262.353 286.139C262.353 284.406 260.959 283 259.24 283C257.521 283 256.128 284.406 256.128 286.139C256.128 287.873 257.521 289.279 259.24 289.279Z" fill="#E6E6E6"/>
<path d="M75.2404 229.279C76.9594 229.279 78.3529 227.873 78.3529 226.139C78.3529 224.406 76.9594 223 75.2404 223C73.5215 223 72.1279 224.406 72.1279 226.139C72.1279 227.873 73.5215 229.279 75.2404 229.279Z" fill="#E6E6E6"/>
<path d="M213.751 237.296L212.198 238.853L210.655 237.285L209.619 238.323L211.162 239.89L209.608 241.446L210.637 242.491L212.191 240.935L213.733 242.501L214.769 241.464L213.226 239.897L214.779 238.341L213.751 237.296Z" fill="#E6E6E6"/>
<path d="M201.143 394.823L199.589 396.38L198.046 394.812L197.011 395.85L198.553 397.417L197 398.974L198.028 400.018L199.582 398.462L201.125 400.029L202.161 398.991L200.618 397.424L202.171 395.868L201.143 394.823Z" fill="#E6E6E6"/>
<path d="M297.81 253.652L296.257 255.209L294.714 253.642L293.678 254.679L295.221 256.246L293.667 257.803L294.696 258.847L296.25 257.291L297.792 258.858L298.828 257.82L297.285 256.253L298.839 254.697L297.81 253.652Z" fill="#E6E6E6"/>
<path opacity="0.8" d="M266.147 178.948L285.824 155.714L305.499 132.481L316.607 119.366C317.221 118.64 316.273 117.508 315.659 118.233L295.983 141.467L276.307 164.7L265.199 177.815C264.585 178.541 265.533 179.673 266.147 178.948Z" fill="url(#paint2_linear)"/>
<path opacity="0.8" d="M4.41066 100.867L24.0867 77.6338L43.7627 54.4005L54.8701 41.285C55.4847 40.5594 54.5363 39.4273 53.9218 40.1529L34.2457 63.3861L14.5697 86.6193L3.46228 99.7348C2.84772 100.46 3.79611 101.593 4.41066 100.867V100.867Z" fill="url(#paint3_linear)"/>
<path d="M189.102 157.421C187.383 157.421 185.989 156.015 185.989 154.281C185.989 152.548 187.383 151.142 189.102 151.142C190.821 151.142 192.214 152.548 192.214 154.281C192.214 156.015 190.821 157.421 189.102 157.421Z" fill="#E6E6E6"/>
<path d="M319.621 131.251C317.902 131.251 316.508 129.845 316.508 128.111C316.508 126.378 317.902 124.972 319.621 124.972C321.34 124.972 322.733 126.378 322.733 128.111C322.733 129.845 321.34 131.251 319.621 131.251Z" fill="#E6E6E6"/>
<path d="M115.141 121.437C113.422 121.437 112.029 120.031 112.029 118.298C112.029 116.564 113.422 115.158 115.141 115.158C116.86 115.158 118.254 116.564 118.254 118.298C118.254 120.031 116.86 121.437 115.141 121.437Z" fill="#E6E6E6"/>
<path d="M167.349 75.7137C165.63 75.7137 164.236 74.3082 164.236 72.5744C164.236 70.8406 165.63 69.4351 167.349 69.4351C169.068 69.4351 170.461 70.8406 170.461 72.5744C170.461 74.3082 169.068 75.7137 167.349 75.7137Z" fill="#E6E6E6"/>
<path d="M28.1287 157.421C26.4097 157.421 25.0162 156.015 25.0162 154.281C25.0162 152.548 26.4097 151.142 28.1287 151.142C29.8477 151.142 31.2412 152.548 31.2412 154.281C31.2412 156.015 29.8477 157.421 28.1287 157.421Z" fill="#E6E6E6"/>
<path d="M203.848 33.3878L205.402 34.9444L206.945 33.377L207.98 34.4147L206.438 35.9815L207.991 37.538L206.963 38.5824L205.409 37.0264L203.866 38.5932L202.83 37.5555L204.374 35.9887L202.82 34.4327L203.848 33.3878Z" fill="#E6E6E6"/>
<path d="M140.028 12.0108L141.581 13.5674L143.125 12L144.16 13.0377L142.617 14.6045L144.171 16.1611L143.143 17.2054L141.589 15.6495L140.046 17.2162L139.01 16.1785L140.553 14.6117L139 13.0558L140.028 12.0108Z" fill="#E6E6E6"/>
<path d="M234.875 126.073L236.428 127.63L237.971 126.062L239.007 127.1L237.464 128.667L239.018 130.224L237.989 131.268L236.435 129.712L234.893 131.279L233.857 130.241L235.4 128.674L233.847 127.118L234.875 126.073Z" fill="#E6E6E6"/>
<path d="M124.873 353.307L123.319 354.864L121.776 353.296L120.741 354.334L122.283 355.901L120.73 357.457L121.758 358.502L123.312 356.946L124.855 358.513L125.891 357.475L124.348 355.908L125.901 354.352L124.873 353.307Z" fill="#E6E6E6"/>
<path opacity="0.8" d="M259.285 277.942L277.253 254.709L295.22 231.476L305.363 218.36C305.925 217.635 305.059 216.502 304.497 217.228L286.53 240.461L268.562 263.694L258.419 276.81C257.858 277.536 258.724 278.668 259.285 277.942V277.942Z" fill="url(#paint4_linear)"/>
<path opacity="0.8" d="M4.0277 305.867L21.9953 282.634L39.9629 259.401L50.1059 246.285C50.6671 245.559 49.8011 244.427 49.2399 245.153L31.2723 268.386L13.3047 291.619L3.16167 304.735C2.60046 305.46 3.46651 306.593 4.0277 305.867V305.867Z" fill="url(#paint5_linear)"/>
<path d="M291.869 336.251C290.3 336.251 289.027 334.845 289.027 333.111C289.027 331.378 290.3 329.972 291.869 329.972C293.439 329.972 294.712 331.378 294.712 333.111C294.712 334.845 293.439 336.251 291.869 336.251Z" fill="#E6E6E6"/>
<path d="M105.144 326.437C103.574 326.437 102.302 325.031 102.302 323.298C102.302 321.564 103.574 320.158 105.144 320.158C106.714 320.158 107.986 321.564 107.986 323.298C107.986 325.031 106.714 326.437 105.144 326.437Z" fill="#E6E6E6"/>
<path d="M152.819 280.714C151.249 280.714 149.976 279.308 149.976 277.574C149.976 275.841 151.249 274.435 152.819 274.435C154.388 274.435 155.661 275.841 155.661 277.574C155.661 279.308 154.388 280.714 152.819 280.714Z" fill="#E6E6E6"/>
<path d="M25.6864 362.421C24.1167 362.421 22.8442 361.015 22.8442 359.281C22.8442 357.548 24.1167 356.142 25.6864 356.142C27.2562 356.142 28.5287 357.548 28.5287 359.281C28.5287 361.015 27.2562 362.421 25.6864 362.421Z" fill="#E6E6E6"/>
<path d="M214.481 331.073L215.9 332.63L217.309 331.062L218.255 332.1L216.846 333.667L218.265 335.224L217.326 336.268L215.907 334.712L214.498 336.279L213.552 335.241L214.961 333.674L213.542 332.118L214.481 331.073Z" fill="#E6E6E6"/>
<path d="M271.953 389.956L270.534 391.513L269.125 389.945L268.179 390.983L269.588 392.55L268.169 394.106L269.108 395.151L270.527 393.595L271.936 395.162L272.882 394.124L271.473 392.557L272.891 391.001L271.953 389.956Z" fill="#E6E6E6"/>
<path opacity="0.1" d="M149.06 386C188.858 386 221.121 354.66 221.121 316C221.121 277.34 188.858 246 149.06 246C109.263 246 77 277.34 77 316C77 354.66 109.263 386 149.06 386Z" fill="white"/>
<path opacity="0.1" d="M95.5 356C107.926 356 118 353.985 118 351.5C118 349.015 107.926 347 95.5 347C83.0736 347 73 349.015 73 351.5C73 353.985 83.0736 356 95.5 356Z" fill="white"/>
<path opacity="0.1" d="M111.5 378C115.642 378 119 377.105 119 376C119 374.895 115.642 374 111.5 374C107.358 374 104 374.895 104 376C104 377.105 107.358 378 111.5 378Z" fill="white"/>
<path opacity="0.1" d="M185.5 368C190.194 368 194 366.881 194 365.5C194 364.119 190.194 363 185.5 363C180.806 363 177 364.119 177 365.5C177 366.881 180.806 368 185.5 368Z" fill="white"/>
<path opacity="0.1" d="M130 369C139.389 369 147 367.657 147 366C147 364.343 139.389 363 130 363C120.611 363 113 364.343 113 366C113 367.657 120.611 369 130 369Z" fill="white"/>
<path opacity="0.1" d="M201.5 356C222.211 356 239 352.866 239 349C239 345.134 222.211 342 201.5 342C180.789 342 164 345.134 164 349C164 352.866 180.789 356 201.5 356Z" fill="white"/>
<path opacity="0.1" d="M89.406 320.78C89.406 320.78 91.8994 332.34 85.6742 341.053L89.406 320.78Z" fill="white"/>
<path d="M108.813 289.15C108.648 289.094 108.484 289.035 108.319 288.981L108.661 289.008C108.718 289.047 108.769 289.095 108.813 289.15Z" fill="#FBBEBE"/>
<path opacity="0.1" d="M114.488 295.549C114.566 295.549 114.538 295.549 114.5 295.562C114.462 295.576 114.4 295.576 114.488 295.549Z" fill="white"/>
<path d="M182.511 331.933C182.511 331.933 178.691 337.066 175.52 337.108C172.35 337.15 170.489 339.271 171.994 340.596C173.5 341.92 189.903 339.839 189.903 339.839C189.903 339.839 190.057 333.53 188.636 332.609C187.215 331.688 182.511 331.933 182.511 331.933Z" fill="white"/>
<path d="M223.593 338.095C223.593 338.095 224.177 342.161 222.371 344.934C220.564 347.706 225.635 348.776 225.635 348.776C225.635 348.776 229.319 349.823 229.587 346.107C229.856 342.391 229.769 339.55 229.423 339.247C229.077 338.944 228.789 336.854 228.789 336.854L223.593 338.095Z" fill="white"/>
<path opacity="0.1" d="M184 333.446C184 333.446 186.683 328.378 186.415 325.639C186.415 325.639 189.232 320.427 191.378 320.844" stroke="white" stroke-miterlimit="10"/>
<g opacity="0.05">
<path opacity="0.05" d="M230.15 332.898L226.931 321.666C223.979 317.283 221.028 317.967 221.028 317.967C219.284 316.871 218.077 310.707 218.077 310.707C217.54 303.995 205.465 304.133 205.465 304.133C205.149 303.577 204.697 303.115 204.153 302.791C203.61 302.467 202.993 302.292 202.364 302.283C201.794 302.283 201.211 302.302 200.628 302.35C200.958 302.384 201.273 302.432 201.575 302.493L202.514 304.138C202.514 304.138 214.587 304 215.124 310.712C215.124 310.712 216.333 316.876 218.077 317.972C218.077 317.972 221.028 317.286 223.979 321.671L227.199 332.903C227.199 332.903 235.651 340.984 233.102 348.372C233.102 348.372 231.381 350.872 224.222 351.175C233.874 351.536 236.053 348.372 236.053 348.372C238.602 340.979 230.15 332.898 230.15 332.898Z" fill="white"/>
<path opacity="0.05" d="M182.926 347.827C180.086 348.349 177.214 348.67 174.331 348.787C177.692 348.918 181.188 348.547 183.441 348.231C183.267 348.094 183.096 347.963 182.926 347.827Z" fill="white"/>
<path opacity="0.05" d="M211.905 350.02C207.774 351.203 203.523 351.889 199.237 352.065C205.421 352.293 211.279 350.977 213.693 350.345C213.11 350.245 212.519 350.133 211.905 350.02Z" fill="white"/>
</g>
<path d="M104.701 371.384C104.701 371.384 108.392 371.268 109.503 370.459C110.615 369.65 115.179 368.685 115.455 369.981C115.732 371.278 121 376.43 116.834 376.465C112.667 376.5 107.155 375.802 106.045 375.111C104.935 374.42 104.701 371.384 104.701 371.384Z" fill="white"/>
<path opacity="0.2" d="M116.909 376.012C112.743 376.048 107.229 375.35 106.119 374.667C105.274 374.141 104.937 372.255 104.825 371.385H104.701C104.701 371.385 104.935 374.424 106.045 375.113C107.155 375.802 112.669 376.5 116.834 376.466C118.038 376.456 118.453 376.019 118.43 375.372C118.263 375.762 117.804 376.006 116.909 376.012Z" fill="white"/>
<path d="M194.677 361.934C194.677 361.934 190.331 361.046 189.173 359.862C188.015 358.679 182.799 356.611 182.22 358.089C181.64 359.567 174.399 364.596 179.323 365.487C184.247 366.378 190.91 366.664 192.36 366.079C193.809 365.493 194.677 361.934 194.677 361.934Z" fill="white"/>
<path opacity="0.2" d="M179.323 364.929C184.249 365.815 190.91 366.106 192.36 365.519C193.461 365.068 194.229 362.904 194.532 361.897L194.677 361.929C194.677 361.929 193.807 365.477 192.36 366.069C190.912 366.66 184.249 366.364 179.323 365.477C177.902 365.221 177.495 364.619 177.648 363.859C177.77 364.36 178.266 364.742 179.323 364.929Z" fill="white"/>
<path opacity="0.1" d="M153.062 265.311H152.027C152.22 265.311 152.404 265.233 152.54 265.094C152.676 264.956 152.752 264.768 152.752 264.571C152.752 264.375 152.676 264.187 152.54 264.048C152.404 263.909 152.22 263.832 152.027 263.832H143.648C143.456 263.832 143.272 263.909 143.136 264.048C143 264.187 142.923 264.375 142.923 264.571C142.923 264.768 143 264.956 143.136 265.094C143.272 265.233 143.456 265.311 143.648 265.311H144.682C144.496 265.32 144.321 265.402 144.192 265.54C144.064 265.677 143.992 265.86 143.992 266.05C143.992 266.24 144.064 266.423 144.192 266.561C144.321 266.698 144.496 266.78 144.682 266.789H143.235C143.042 266.789 142.858 266.867 142.722 267.006C142.586 267.145 142.51 267.333 142.51 267.529C142.51 267.725 142.586 267.913 142.722 268.052C142.858 268.191 143.042 268.269 143.235 268.269H151.614C151.806 268.269 151.991 268.191 152.126 268.052C152.262 267.913 152.339 267.725 152.339 267.529C152.339 267.333 152.262 267.145 152.126 267.006C151.991 266.867 151.806 266.789 151.614 266.789H153.062C153.16 266.794 153.257 266.778 153.349 266.743C153.441 266.708 153.525 266.655 153.596 266.586C153.667 266.517 153.724 266.433 153.762 266.341C153.801 266.249 153.821 266.15 153.821 266.05C153.821 265.95 153.801 265.851 153.762 265.759C153.724 265.667 153.667 265.584 153.596 265.515C153.525 265.446 153.441 265.392 153.349 265.357C153.257 265.322 153.16 265.306 153.062 265.311Z" fill="white"/>
<path opacity="0.1" d="M185.608 291.341H184.573C184.759 291.332 184.935 291.25 185.063 291.112C185.192 290.975 185.263 290.792 185.263 290.602C185.263 290.412 185.192 290.229 185.063 290.091C184.935 289.954 184.759 289.872 184.573 289.863H176.186C176.088 289.858 175.99 289.873 175.898 289.908C175.806 289.943 175.722 289.997 175.651 290.066C175.58 290.135 175.524 290.218 175.485 290.31C175.446 290.402 175.427 290.502 175.427 290.602C175.427 290.702 175.446 290.801 175.485 290.893C175.524 290.985 175.58 291.068 175.651 291.137C175.722 291.206 175.806 291.26 175.898 291.295C175.99 291.33 176.088 291.345 176.186 291.341H177.22C177.034 291.35 176.859 291.431 176.73 291.569C176.602 291.707 176.53 291.889 176.53 292.08C176.53 292.27 176.602 292.453 176.73 292.59C176.859 292.728 177.034 292.81 177.22 292.819H175.772C175.58 292.819 175.396 292.897 175.26 293.035C175.124 293.174 175.048 293.362 175.048 293.558C175.048 293.755 175.124 293.943 175.26 294.082C175.396 294.22 175.58 294.298 175.772 294.298H184.15C184.342 294.298 184.527 294.22 184.662 294.082C184.798 293.943 184.875 293.755 184.875 293.558C184.875 293.362 184.798 293.174 184.662 293.035C184.527 292.897 184.342 292.819 184.15 292.819H185.608C185.706 292.823 185.803 292.808 185.895 292.773C185.987 292.738 186.071 292.684 186.142 292.615C186.213 292.546 186.27 292.463 186.308 292.371C186.347 292.279 186.367 292.18 186.367 292.08C186.367 291.979 186.347 291.88 186.308 291.788C186.27 291.696 186.213 291.613 186.142 291.544C186.071 291.475 185.987 291.421 185.895 291.386C185.803 291.351 185.706 291.336 185.608 291.341Z" fill="white"/>
<path opacity="0.1" d="M137.382 286.525H136.347C136.445 286.53 136.543 286.514 136.635 286.479C136.727 286.444 136.811 286.391 136.882 286.322C136.953 286.253 137.009 286.169 137.048 286.077C137.087 285.985 137.106 285.886 137.106 285.786C137.106 285.686 137.087 285.587 137.048 285.495C137.009 285.403 136.953 285.32 136.882 285.251C136.811 285.182 136.727 285.128 136.635 285.093C136.543 285.058 136.445 285.042 136.347 285.047H127.966C127.868 285.042 127.77 285.058 127.679 285.093C127.587 285.128 127.503 285.182 127.432 285.251C127.361 285.32 127.304 285.403 127.266 285.495C127.227 285.587 127.207 285.686 127.207 285.786C127.207 285.886 127.227 285.985 127.266 286.077C127.304 286.169 127.361 286.253 127.432 286.322C127.503 286.391 127.587 286.444 127.679 286.479C127.77 286.514 127.868 286.53 127.966 286.525H129.001C128.903 286.52 128.805 286.536 128.713 286.571C128.621 286.606 128.537 286.66 128.466 286.729C128.395 286.798 128.339 286.881 128.3 286.973C128.261 287.065 128.241 287.164 128.241 287.264C128.241 287.364 128.261 287.463 128.3 287.555C128.339 287.647 128.395 287.731 128.466 287.8C128.537 287.869 128.621 287.922 128.713 287.957C128.805 287.992 128.903 288.008 129.001 288.003H127.551C127.359 288.003 127.175 288.081 127.039 288.22C126.903 288.359 126.827 288.547 126.827 288.743C126.827 288.939 126.903 289.127 127.039 289.266C127.175 289.405 127.359 289.483 127.551 289.483H135.931C136.123 289.483 136.307 289.405 136.443 289.266C136.579 289.127 136.655 288.939 136.655 288.743C136.655 288.547 136.579 288.359 136.443 288.22C136.307 288.081 136.123 288.003 135.931 288.003H137.378C137.476 288.008 137.574 287.992 137.666 287.957C137.758 287.922 137.842 287.869 137.913 287.8C137.984 287.731 138.04 287.647 138.079 287.555C138.118 287.463 138.137 287.364 138.137 287.264C138.137 287.164 138.118 287.065 138.079 286.973C138.04 286.881 137.984 286.798 137.913 286.729C137.842 286.66 137.758 286.606 137.666 286.571C137.574 286.536 137.476 286.52 137.378 286.525H137.382Z" fill="white"/>
<path d="M76.3957 337.318C75.5562 338.985 75.1642 340.849 75.2593 342.721C75.3545 344.594 75.9335 346.406 76.9375 347.976C77.2669 348.48 77.5699 348.844 77.812 348.939C78.973 349.405 81.2984 350.55 81.2984 350.55L86.8979 348.304C86.8979 348.304 87.8069 343.394 88.6666 339.179C89.2529 336.304 89.8194 333.753 90.0516 333.306C90.6314 332.205 90.0516 320.214 90.0516 320.214C90.0516 320.214 84.4522 319.831 82.9124 324.238L82.2388 325.583L76.3957 337.318Z" fill="#FCFCFC"/>
<path opacity="0.1" d="M83.8297 338.642C87.2338 342.626 88.6699 339.18 88.6699 339.18C89.2562 336.305 89.8227 333.755 90.0549 333.307C90.6346 332.206 90.0549 320.216 90.0549 320.216C90.0549 320.216 84.4555 319.833 82.9157 324.24L82.2421 325.585C81.8106 329.111 81.3841 335.776 83.8297 338.642Z" fill="#F4F4FF"/>
<path d="M84.5775 349.744L104.34 347.414L107.866 323.726L105.2 317.574C104.073 314.954 102.514 312.552 100.589 310.472C99.2463 309.028 97.6242 307.639 95.918 306.941C95.6848 306.845 95.4468 306.762 95.2049 306.692C94.9268 306.606 94.6327 306.588 94.3465 306.64C94.0604 306.691 93.7902 306.811 93.558 306.99C91.1206 308.754 90.2494 316.253 89.9678 319.863C89.8519 321.346 89.6556 322.822 89.3798 324.283L84.5775 349.744Z" fill="white"/>
<path opacity="0.1" d="M97.7344 323.471L93.6171 333.812C95.7746 332.201 98.9712 323.429 98.9712 323.429L101.835 333.43L99.5525 322.889C99.8867 320.6 99.9838 318.282 99.8424 315.972C99.6612 313.326 97.2288 309.078 95.908 306.94C95.6748 306.844 95.4368 306.761 95.1949 306.691C94.9168 306.605 94.6227 306.587 94.3365 306.638C94.0503 306.69 93.7802 306.81 93.548 306.988C94.5855 309.115 97.1794 314.434 97.9699 316.014C98.9728 318.005 97.7344 323.471 97.7344 323.471Z" fill="#B3B2D2"/>
<path d="M101.096 350.55H111.818C112.26 350.55 112.696 350.459 113.101 350.281C113.507 350.104 113.873 349.844 114.176 349.518C114.48 349.191 114.716 348.805 114.869 348.383C115.023 347.961 115.09 347.511 115.068 347.061C114.831 342.367 114.23 333.997 112.8 328.683C112.028 325.817 111.13 324.312 110.307 323.57C109.92 323.19 109.422 322.95 108.889 322.889C108.484 322.854 108.079 322.954 107.736 323.175C105.745 325.124 103.419 335.379 103.419 335.379L101.096 350.55Z" fill="white"/>
<path opacity="0.1" d="M110.995 341.455C111.436 342.705 111.611 344.146 110.995 345.55L108.605 346.755C108.605 346.755 102.183 343.976 102.963 338.279C102.963 338.279 103.174 337.102 105.386 337.193C106.63 337.254 107.827 337.693 108.826 338.452C109.825 339.211 110.58 340.256 110.995 341.455Z" fill="#DEDEF2"/>
<path opacity="0.1" d="M108.443 326.481C108.368 324.484 109.431 323.791 110.308 323.571C109.922 323.19 109.424 322.951 108.891 322.89C108.28 323.412 107.846 324.118 107.654 324.907L105.414 336.053C105.414 336.053 108.568 329.829 108.443 326.481Z" fill="#B3B2D2"/>
<path d="M98.2747 335.295L103.584 342.71L104.505 348.83L101.093 350.55L96.1733 351.66C95.6995 351.767 95.2124 351.8 94.729 351.756L81.3052 350.55L83.1316 346.227L89.4392 337.186L98.2747 335.295Z" fill="white"/>
<path opacity="0.1" d="M96.2192 332.749C96.2192 332.749 99.8423 333.003 98.482 339.359C97.1216 345.714 83.1248 346.224 83.1248 346.224C83.1248 346.224 86.099 340.843 90.6741 336.988C91.1879 336.556 91.6836 336.105 92.1563 335.624C93.2086 334.55 95.2211 332.662 96.2192 332.749Z" fill="#DADAE3"/>
<path opacity="0.1" d="M99.4785 337.541C99.4785 337.541 104.388 342.103 103.925 349.122L99.4785 337.541Z" fill="#B3B2D2"/>
<path opacity="0.1" d="M107.738 323.175C107.738 323.175 102.586 330.17 102.008 340.933L107.738 323.175Z" fill="white"/>
<path d="M162.25 268.48C144.861 268.48 132.376 279.867 132.376 306.436C132.376 336.548 144.861 344.519 162.25 344.519C179.638 344.519 192.867 335.789 192.867 306.436C192.867 275.059 179.638 268.48 162.25 268.48ZM162.364 334.524C150.32 334.524 144.028 327.312 144.028 306.456C144.028 288.053 150.578 278.349 162.622 278.349C174.665 278.349 181.215 284.723 181.215 306.456C181.215 326.786 174.408 334.524 162.364 334.524Z" fill="#BEBDFF"/>
<path d="M166.216 266.203C148.828 266.203 136.343 277.59 136.343 304.159C136.343 334.271 148.828 342.241 166.216 342.241C183.605 342.241 196.833 333.512 196.833 304.159C196.833 272.782 183.605 266.203 166.216 266.203ZM166.331 332.246C154.287 332.246 147.995 325.035 147.995 304.178C147.995 285.776 154.544 276.072 166.588 276.072C178.632 276.072 185.182 282.446 185.182 304.178C185.182 324.509 178.374 332.246 166.331 332.246V332.246Z" stroke="#D2D7FF" stroke-miterlimit="10"/>
<path d="M154.262 304.435C156.162 304.435 157.702 302.4 157.702 299.891C157.702 297.382 156.162 295.348 154.262 295.348C152.362 295.348 150.823 297.382 150.823 299.891C150.823 302.4 152.362 304.435 154.262 304.435Z" fill="#2F2E41"/>
<path d="M172.977 304.538C174.876 304.538 176.416 302.504 176.416 299.995C176.416 297.486 174.876 295.452 172.977 295.452C171.077 295.452 169.537 297.486 169.537 299.995C169.537 302.504 171.077 304.538 172.977 304.538Z" fill="#2F2E41"/>
<path d="M155.071 303.402C156.971 303.402 158.511 301.368 158.511 298.859C158.511 296.35 156.971 294.316 155.071 294.316C153.172 294.316 151.632 296.35 151.632 298.859C151.632 301.368 153.172 303.402 155.071 303.402Z" stroke="#CDD2FF" stroke-miterlimit="10"/>
<path d="M173.786 303.505C175.686 303.505 177.226 301.471 177.226 298.962C177.226 296.453 175.686 294.419 173.786 294.419C171.887 294.419 170.347 296.453 170.347 298.962C170.347 301.471 171.887 303.505 173.786 303.505Z" stroke="#CDD2FF" stroke-miterlimit="10"/>
<path d="M164.884 315.978C168.348 315.978 171.156 314.314 171.156 312.261C171.156 310.208 168.348 308.543 164.884 308.543C161.42 308.543 158.612 310.208 158.612 312.261C158.612 314.314 161.42 315.978 164.884 315.978Z" stroke="#F06544" stroke-miterlimit="10"/>
<path d="M155.071 298.652C155.63 298.652 156.083 298.19 156.083 297.62C156.083 297.05 155.63 296.587 155.071 296.587C154.513 296.587 154.06 297.05 154.06 297.62C154.06 298.19 154.513 298.652 155.071 298.652Z" fill="white"/>
<path d="M173.887 298.652C174.446 298.652 174.899 298.19 174.899 297.62C174.899 297.05 174.446 296.587 173.887 296.587C173.329 296.587 172.876 297.05 172.876 297.62C172.876 298.19 173.329 298.652 173.887 298.652Z" fill="white"/>
<path opacity="0.3" d="M174.899 308.359C175.458 308.359 175.911 307.896 175.911 307.326C175.911 306.756 175.458 306.293 174.899 306.293C174.34 306.293 173.887 306.756 173.887 307.326C173.887 307.896 174.34 308.359 174.899 308.359Z" fill="white"/>
<path opacity="0.3" d="M150.216 308.359C150.774 308.359 151.227 307.896 151.227 307.326C151.227 306.756 150.774 306.293 150.216 306.293C149.657 306.293 149.204 306.756 149.204 307.326C149.204 307.896 149.657 308.359 150.216 308.359Z" fill="white"/>
<path d="M165.819 347.408C165.819 347.408 165.685 334.258 178.431 328.912L181.39 323.164L182.81 319.633C183.324 318.354 184.133 317.221 185.167 316.329C186.202 315.437 187.432 314.814 188.753 314.511L191.049 313.985L191.759 310.931C192.137 309.299 192.975 307.816 194.169 306.664C195.364 305.513 196.862 304.744 198.48 304.451C199.876 304.187 201.292 304.052 202.712 304.048C203.341 304.058 203.956 304.233 204.498 304.557C205.04 304.881 205.491 305.343 205.807 305.897C205.807 305.897 217.882 305.761 218.417 312.473C218.417 312.473 219.626 318.636 221.37 319.732C221.37 319.732 224.321 319.048 227.272 323.431L230.492 334.663C230.492 334.663 238.944 342.744 236.394 350.132C236.394 350.132 232.906 355.199 215.197 351.774C215.197 351.774 196.281 357.659 186.212 349.589C186.211 349.599 169.442 352.886 165.819 347.408Z" fill="white"/>
<path opacity="0.1" d="M174.271 345.353C174.271 345.353 176.955 341.518 176.82 338.777C176.685 336.036 177.453 329.361 177.453 329.361" stroke="#A7AAC6" stroke-miterlimit="10"/>
<path opacity="0.1" d="M198.823 320.697C198.823 320.697 206.201 317.958 206.604 315.767" stroke="#A7AAC6" stroke-miterlimit="10"/>
<path opacity="0.1" d="M201.505 326.999C201.505 326.999 209.287 323.438 209.287 322.478H213.175C213.175 322.478 218.811 330.012 218.141 333.299" stroke="#A7AAC6" stroke-miterlimit="10"/>
<path opacity="0.1" d="M210.629 332.477C210.629 332.477 203.116 331.929 200.432 334.121C197.747 336.314 192.919 337.408 192.919 337.408C192.919 337.408 190.101 343.572 189.027 344.667C187.953 345.762 186.209 349.599 186.209 349.599" stroke="#A7AAC6" stroke-miterlimit="10"/>
<path opacity="0.1" d="M210.629 339.737C210.629 339.737 211.433 342.612 212.507 344.257C213.58 345.901 215.189 351.79 215.189 351.79" stroke="#A7AAC6" stroke-miterlimit="10"/>
<path opacity="0.1" d="M223.239 348.092C223.239 348.092 224.942 352.929 226.439 352.976" stroke="#A7AAC6" stroke-miterlimit="10"/>
<path opacity="0.1" d="M212.085 327.329C212.085 327.329 216.509 328.549 218.358 331.507C220.208 334.464 225.857 337.146 225.857 337.146" stroke="#A7AAC6" stroke-miterlimit="10"/>
<path opacity="0.1" d="M213.982 312.758C213.982 312.758 213.982 319.058 215.726 319.058C217.471 319.058 221.362 319.742 221.362 319.742" stroke="#A7AAC6" stroke-miterlimit="10"/>
<path opacity="0.1" d="M205.435 305.275C205.435 305.275 204.989 316.159 202.708 318.977" stroke="#A7AAC6" stroke-miterlimit="10"/>
<path d="M116.601 365.883H143.468C143.728 365.881 143.983 365.811 144.208 365.68C144.433 365.548 144.621 365.359 144.754 365.131C144.887 364.903 144.959 364.644 144.965 364.379C144.97 364.113 144.909 363.851 144.785 363.618L131.358 338.148C131.23 337.904 131.039 337.7 130.806 337.558C130.572 337.415 130.306 337.34 130.034 337.34C129.763 337.34 129.496 337.415 129.263 337.558C129.03 337.7 128.839 337.904 128.71 338.148L115.277 363.618C115.153 363.852 115.091 364.115 115.097 364.38C115.103 364.646 115.176 364.905 115.31 365.134C115.443 365.362 115.632 365.551 115.858 365.682C116.085 365.813 116.34 365.882 116.601 365.883ZM131.744 361.229H128.325V357.74H131.744V361.229ZM131.744 355.413H128.325V348.433H131.744V355.413Z" fill="#ED6444"/>
<path opacity="0.1" d="M116.601 365.883H143.468C143.728 365.881 143.983 365.811 144.208 365.68C144.433 365.548 144.621 365.359 144.754 365.131C144.887 364.903 144.959 364.644 144.965 364.379C144.97 364.113 144.909 363.851 144.785 363.618L131.358 338.148C131.23 337.904 131.039 337.7 130.806 337.558C130.572 337.415 130.306 337.34 130.034 337.34C129.763 337.34 129.496 337.415 129.263 337.558C129.03 337.7 128.839 337.904 128.71 338.148L115.277 363.618C115.153 363.852 115.091 364.115 115.097 364.38C115.103 364.646 115.176 364.905 115.31 365.134C115.443 365.362 115.632 365.551 115.858 365.682C116.085 365.813 116.34 365.882 116.601 365.883ZM131.744 361.229H128.325V357.74H131.744V361.229ZM131.744 355.413H128.325V348.433H131.744V355.413Z" fill="white"/>
<path d="M116.044 366.154H142.911C143.171 366.153 143.426 366.083 143.651 365.951C143.876 365.819 144.065 365.63 144.197 365.402C144.33 365.174 144.402 364.915 144.408 364.65C144.413 364.385 144.352 364.123 144.229 363.889L130.802 338.42C130.673 338.175 130.482 337.971 130.249 337.829C130.016 337.687 129.749 337.612 129.477 337.612C129.206 337.612 128.939 337.687 128.706 337.829C128.473 337.971 128.282 338.175 128.153 338.42L114.72 363.889C114.596 364.123 114.535 364.386 114.54 364.652C114.546 364.917 114.619 365.177 114.753 365.405C114.886 365.633 115.075 365.822 115.301 365.953C115.528 366.085 115.784 366.154 116.044 366.154ZM131.187 361.5H127.768V358.011H131.187V361.5ZM131.187 355.684H127.768V348.705H131.187V355.684Z" fill="#ED6444"/>
<path d="M171 312C171 313.657 168.314 315 165 315C161.686 315 159 313.657 159 312C159 310.565 161.015 309.365 163.707 309.072C164.136 309.023 164.568 308.999 165 309C165.724 308.998 166.447 309.065 167.154 309.2C169.403 309.632 171 310.723 171 312Z" fill="#D14B2C"/>
<path d="M167 309.4C167.001 309.557 166.927 309.709 166.792 309.824C166.728 309.879 166.65 309.923 166.564 309.954C166.477 309.984 166.384 310 166.29 310H164.711C164.516 309.995 164.332 309.929 164.199 309.816C164.066 309.704 163.995 309.554 164 309.4C164 309.278 164.045 309.159 164.13 309.057C164.479 309.018 164.832 308.999 165.184 309C165.776 308.998 166.366 309.052 166.942 309.16C166.981 309.236 167 309.318 167 309.4Z" fill="white"/>
<defs>
<linearGradient id="paint0_linear" x1="282.791" y1="42.5851" x2="334.597" y2="42.5851" gradientUnits="userSpaceOnUse">
<stop stop-color="white"/>
<stop offset="1" stop-color="white" stop-opacity="0.3"/>
</linearGradient>
<linearGradient id="paint1_linear" x1="142" y1="131.59" x2="193.806" y2="131.59" gradientUnits="userSpaceOnUse">
<stop stop-color="white"/>
<stop offset="1" stop-color="white" stop-opacity="0.3"/>
</linearGradient>
<linearGradient id="paint2_linear" x1="265" y1="148.59" x2="316.806" y2="148.59" gradientUnits="userSpaceOnUse">
<stop stop-color="white"/>
<stop offset="1" stop-color="white" stop-opacity="0.3"/>
</linearGradient>
<linearGradient id="paint3_linear" x1="3.26318" y1="70.5099" x2="55.0692" y2="70.5099" gradientUnits="userSpaceOnUse">
<stop stop-color="white"/>
<stop offset="1" stop-color="white" stop-opacity="0.3"/>
</linearGradient>
<linearGradient id="paint4_linear" x1="258.237" y1="247.585" x2="305.545" y2="247.585" gradientUnits="userSpaceOnUse">
<stop stop-color="white"/>
<stop offset="1" stop-color="white" stop-opacity="0.3"/>
</linearGradient>
<linearGradient id="paint5_linear" x1="2.97986" y1="275.51" x2="50.2877" y2="275.51" gradientUnits="userSpaceOnUse">
<stop stop-color="white"/>
<stop offset="1" stop-color="white" stop-opacity="0.3"/>
</linearGradient>
</defs>
</svg>
