<svg width="24" height="24" viewBox="0 0 24 24" fill="none" xmlns="http://www.w3.org/2000/svg">
<path fill-rule="evenodd" clip-rule="evenodd" d="M8.76777 13.2678C9.23661 12.7989 9.5 12.163 9.5 11.5C9.5 10.837 9.23661 10.2011 8.76777 9.73223C8.29893 9.26339 7.66304 9 7 9C6.33696 9 5.70107 9.26339 5.23223 9.73223C4.76339 10.2011 4.5 10.837 4.5 11.5C4.5 12.163 4.76339 12.7989 5.23223 13.2678C5.70107 13.7366 6.33696 14 7 14C7.66304 14 8.29893 13.7366 8.76777 13.2678ZM8.17851 12.6785C7.86595 12.9911 7.44203 13.1667 7 13.1667C6.55797 13.1667 6.13405 12.9911 5.82149 12.6785C5.50893 12.366 5.33333 11.942 5.33333 11.5C5.33333 11.058 5.50893 10.634 5.82149 10.3215C6.13405 10.0089 6.55797 9.83333 7 9.83333C7.44203 9.83333 7.86595 10.0089 8.17851 10.3215C8.49107 10.634 8.66667 11.058 8.66667 11.5C8.66667 11.942 8.49107 12.366 8.17851 12.6785Z" fill="#575B7B"/>
<path d="M12.5 10C12.2239 10 12 10.2239 12 10.5C12 10.7761 12.2239 11 12.5 11H20.5C20.7761 11 21 10.7761 21 10.5C21 10.2239 20.7761 10 20.5 10H12.5Z" fill="#575B7B"/>
<path d="M12.5 9C12.2239 9 12 8.77614 12 8.5C12 8.22386 12.2239 8 12.5 8H14.5C14.7761 8 15 8.22386 15 8.5C15 8.77614 14.7761 9 14.5 9H12.5Z" fill="#575B7B"/>
<path d="M12.5 12C12.2239 12 12 12.2239 12 12.5C12 12.7761 12.2239 13 12.5 13H20.5C20.7761 13 21 12.7761 21 12.5C21 12.2239 20.7761 12 20.5 12H12.5Z" fill="#575B7B"/>
<path d="M17.5 15H12.5C12.2239 15 12 14.7761 12 14.5C12 14.2239 12.2239 14 12.5 14H17.5C17.7761 14 18 14.2239 18 14.5C18 14.7761 17.7761 15 17.5 15Z" fill="#575B7B"/>
<path fill-rule="evenodd" clip-rule="evenodd" d="M2.54184 18.9473C1.65807 18.7401 1 17.9469 1 17V7C1 5.89543 1.89543 5 3 5H21C22.1046 5 23 5.89543 23 7V17C23 18.1046 22.1046 19 21 19H2.83333C2.83333 19 2.70102 19 2.54184 18.9473ZM3 6.2H21C21.4418 6.2 21.8 6.55817 21.8 7V17C21.8 17.4418 21.4418 17.8 21 17.8H11.9593C11.7507 16.767 10.6645 14.8333 7 14.8333C3.95312 14.8333 2.68867 16.1702 2.22909 17.2145C2.21013 17.1463 2.2 17.0743 2.2 17V7C2.2 6.55817 2.55817 6.2 3 6.2ZM11.101 17.8H3C2.96656 17.8 2.9336 17.7979 2.90123 17.794C2.98711 17.5125 3.16912 17.1342 3.52667 16.7767C4.07 16.2333 5.09167 15.6667 7 15.6667C8.9075 15.6667 9.93 16.2333 10.4733 16.7767C10.8334 17.1368 11.0158 17.5179 11.101 17.8Z" fill="#575B7B"/>
</svg>
